# xmcd CD database file
#
# Track frame offsets:
#	150
#	16651
#	33048
#	53077
#	65732
#	85266
#	104296
#	128048
#	141471
#	146279
#	173932
#	184583
#	205322
#	226319
#	259551
#
# Disc length: 3566 seconds
#
# Revision: 2
# Processed by: cddbd v1.5PL3 Copyright (c) Steve Scherf et al.
# Submitted via: CDex 1.51
#
DISCID=c70dec0f
DTITLE=Klazzbrothers and Cuba Percussion - Jazz Meets Cuba
DYEAR=2003
DGENRE=Jazz
TTITLE0=Summertime (George Gershwin)
TTITLE1=Mambo Influenciado (Chucho Val
TTITLE2=In A Sentimental Mood (Duke El
TTITLE3=Conception (Alexis Herrera Est
TTITLE4=Samba Zamba (Tobias Forster)
TTITLE5=Los Amigos (Frank Emilio)
TTITLE6=Au Privave (Charlie Parker)
TTITLE7=So What (Miles Davis)
TTITLE8=Dynamita (Alexis Herrera Estev
TTITLE9=Girl From Ipanema (A. C. Jobim
TTITLE10=Konga Solo (Elio Rodriguez Lui
TTITLE11=Mondongo (Frank Emilio)
TTITLE12=Elegia (Tobias Forster)
TTITLE13=Take Five (Paul Desmond)
TTITLE14=Summertime (Reprise) (George G
EXTD=YEAR: 2003
EXTT0=
EXTT1=
EXTT2=
EXTT3=
EXTT4=
EXTT5=
EXTT6=
EXTT7=
EXTT8=
EXTT9=
EXTT10=
EXTT11=
EXTT12=
EXTT13=
EXTT14=
PLAYORDER=
